<svg width="57" height="58" viewBox="0 0 57 58" fill="none" xmlns="http://www.w3.org/2000/svg">
<path d="M34.4375 3.91811L31.8125 12.4181L29.1875 3.91811C29.0505 3.46991 29.014 2.99303 29.081 2.52665C29.1479 2.06026 29.3164 1.61767 29.5727 1.23523C29.8289 0.852798 30.1655 0.541426 30.5549 0.326695C30.9442 0.111964 31.3752 0 31.8125 0C32.2498 0 32.6808 0.111964 33.0701 0.326695C33.4595 0.541426 33.7961 0.852798 34.0523 1.23523C34.3086 1.61767 34.4771 2.06026 34.544 2.52665C34.611 2.99303 34.5745 3.46991 34.4375 3.91811ZM48.518 12.5598L41.0919 16.5689L44.8063 8.55344C45.15 7.87416 45.7245 7.36527 46.4087 7.13387C47.093 6.90246 47.8338 6.96658 48.4752 7.31272C49.1166 7.65887 49.6086 8.26006 49.8477 8.98979C50.0867 9.71951 50.0542 10.5209 49.757 11.2253C49.4887 11.8031 49.0539 12.2714 48.518 12.5598ZM52.8125 29.4181L44.9375 26.5848L52.8125 23.7514C53.2284 23.6019 53.6712 23.5612 54.1045 23.6327C54.5378 23.7041 54.9492 23.8857 55.3048 24.1624C55.6603 24.4391 55.9499 24.803 56.1496 25.2241C56.3493 25.6453 56.4535 26.1116 56.4535 26.5848C56.4535 27.0579 56.3493 27.5243 56.1496 27.9454C55.9499 28.3666 55.6603 28.7305 55.3048 29.0072C54.9492 29.2839 54.5378 29.4654 54.1045 29.5369C53.6712 29.6083 53.2284 29.5676 52.8125 29.4181ZM18.8188 8.55344L22.5331 16.5689L15.107 12.5598C14.7133 12.3489 14.3717 12.0399 14.1106 11.6583C13.8494 11.2768 13.6761 10.8336 13.6051 10.3654C13.534 9.89726 13.5672 9.41757 13.7019 8.966C13.8366 8.51443 14.069 8.10395 14.3798 7.7685C14.6906 7.43305 15.0709 7.18225 15.4892 7.03685C15.9076 6.89145 16.352 6.85562 16.7857 6.93232C17.2195 7.00901 17.6301 7.19604 17.9836 7.47793C18.3371 7.75982 18.6234 8.12849 18.8188 8.55344ZM43.037 30.3871C43.4019 29.1858 43.625 27.9193 43.625 26.5848C43.625 19.5553 38.3251 13.8348 31.8125 13.8348C28.295 13.8348 25.1529 15.5178 23.0004 18.1641L22.625 18.0848C20.4077 18.0864 18.2159 18.595 16.1939 19.577C14.1718 20.5591 12.3655 21.9925 10.8939 23.7826C10.4048 23.5877 9.87472 23.5459 9.36463 23.662C8.85454 23.7781 8.38522 24.0475 8.01074 24.4389C7.63626 24.8304 7.37187 25.3281 7.24803 25.8746C7.12419 26.4212 7.14593 26.9944 7.31075 27.5283C7.46037 28.0014 7.7255 28.3754 8.03787 28.6928C7.27112 30.7223 6.87621 32.893 6.875 35.0848L6.88025 35.4418C4.62651 36.072 2.63018 37.4916 1.20412 39.4779C-0.221939 41.4643 -0.997141 43.9052 -1 46.4181C-1 52.6684 3.71187 57.7514 9.5 57.7514H38.375C45.6121 57.7514 51.5 51.3963 51.5 43.5848C51.5 37.5526 47.972 32.4243 43.037 30.3871ZM31.8125 19.5014C35.4324 19.5014 38.375 22.6776 38.375 26.5848C38.375 27.6218 38.123 28.5851 37.7503 29.4719C36.821 29.5314 35.8602 29.6816 34.8155 30.0046C34.1404 28.1098 33.0955 26.3941 31.7516 24.9739C30.4078 23.5536 28.7964 22.4622 27.0271 21.7738C27.6365 21.0593 28.3761 20.4886 29.1997 20.0975C30.0232 19.7065 30.9128 19.5035 31.8125 19.5014ZM38.375 52.0848H9.5C6.602 52.0848 4.25 49.5433 4.25 46.4181C4.25 43.2929 6.602 40.7514 9.2585 40.7344L12.9913 40.7798L12.3402 37.3741C12.0278 35.7264 12.0587 34.0244 12.4305 32.3912C12.8023 30.758 13.5058 29.2344 14.4901 27.9306C15.4744 26.6269 16.7148 25.5756 18.1218 24.8528C19.5287 24.13 21.0669 23.7538 22.625 23.7514L22.8061 23.7118C25.2179 23.7741 27.5367 24.7282 29.3749 26.4147C31.213 28.1011 32.459 30.4176 32.9045 32.9768L33.0042 33.5038C33.1596 34.0851 33.4858 34.5962 33.9337 34.9601C34.3816 35.324 34.9269 35.5209 35.4875 35.5211L36.2461 35.4559C37.0651 35.2009 37.7397 35.0848 38.375 35.0848C42.7168 35.0848 46.25 38.8984 46.25 43.5848C46.25 48.2711 42.7168 52.0848 38.375 52.0848Z" fill="#063252"/>
</svg>
